<svg id="e7szaPUJC5k1" xmlns="http://www.w3.org/2000/svg" xmlns:xlink="http://www.w3.org/1999/xlink" viewBox="0 0 460 400" shape-rendering="geometricPrecision" text-rendering="geometricPrecision"><style><![CDATA[#e7szaPUJC5k9 {animation: e7szaPUJC5k9_c_o 1000ms linear 1 normal forwards}@keyframes e7szaPUJC5k9_c_o { 0% {opacity: 1} 50% {opacity: 1} 100% {opacity: 0}} #e7szaPUJC5k10 {animation-name: e7szaPUJC5k10_c_o, e7szaPUJC5k10_s_do;animation-duration: 1000ms;animation-fill-mode: forwards;animation-timing-function: linear;animation-direction: normal;animation-iteration-count: 1;}@keyframes e7szaPUJC5k10_c_o { 0% {opacity: 1} 50% {opacity: 1} 100% {opacity: 0}}@keyframes e7szaPUJC5k10_s_do { 0% {stroke-dashoffset: 842.79} 50% {stroke-dashoffset: 0} 100% {stroke-dashoffset: 0}} #e7szaPUJC5k11 {animation-name: e7szaPUJC5k11_c_o, e7szaPUJC5k11_s_do;animation-duration: 1000ms;animation-fill-mode: forwards;animation-timing-function: linear;animation-direction: normal;animation-iteration-count: 1;}@keyframes e7szaPUJC5k11_c_o { 0% {opacity: 1} 50% {opacity: 1} 100% {opacity: 0}}@keyframes e7szaPUJC5k11_s_do { 0% {stroke-dashoffset: 145.49} 50% {stroke-dashoffset: 0} 100% {stroke-dashoffset: 0}} #e7szaPUJC5k12 {animation-name: e7szaPUJC5k12_c_o, e7szaPUJC5k12_s_do;animation-duration: 1000ms;animation-fill-mode: forwards;animation-timing-function: linear;animation-direction: normal;animation-iteration-count: 1;}@keyframes e7szaPUJC5k12_c_o { 0% {opacity: 1} 50% {opacity: 1} 100% {opacity: 0}}@keyframes e7szaPUJC5k12_s_do { 0% {stroke-dashoffset: 167.51} 50% {stroke-dashoffset: 0} 100% {stroke-dashoffset: 0}} #e7szaPUJC5k13 {animation-name: e7szaPUJC5k13_c_o, e7szaPUJC5k13_s_do;animation-duration: 1000ms;animation-fill-mode: forwards;animation-timing-function: linear;animation-direction: normal;animation-iteration-count: 1;}@keyframes e7szaPUJC5k13_c_o { 0% {opacity: 1} 50% {opacity: 1} 100% {opacity: 0}}@keyframes e7szaPUJC5k13_s_do { 0% {stroke-dashoffset: 1071.15} 50% {stroke-dashoffset: 0} 100% {stroke-dashoffset: 0}}]]></style><g transform="translate(.000001 0.000001)"><path d="M60,199.729068C60,416.895394,388.850633,433.026642,400.731416,200C400,-18.700023,69.215276,-31.228963,60,199.729068Z" fill="none" stroke="#000" stroke-width="3"/><path d="" fill="none" stroke="#000" stroke-width="27"/><path d="M146.668125,253.050625L183.65375,262.39l-7.596876,30.515l18.349374,4.568749l7.522499-30.175l14.64125,3.793125-7.50125,30.0475l18.36,4.56875l7.596875-30.451251l15.138359,2.110591c21.372705,4.57941,46.673127-8.240026,49.642266-26.898718c8.575149-15.994332.401537-38.362058-16.8725-44.54c9.270448-2.058293,22.709682-10.397779,23.449375-26.96625c2.787834-14.580225-8.638924-33.044959-23.449376-36.566138l-13.36625-5.668237l7.5225-30.175-18.36-4.568751-7.33125,29.378125-14.715625-3.46375l7.384375-29.569375-18.36-4.579375-7.724375,30.164374-36.836875-9.180001-4.8875,19.613749l13.3025,3.314999c5.47847.588929,9.443018,6.777042,8.595625,11.931875l-20.601875,81.40875c-1.048156,3.493354-5.083046,6.027323-8.425625,4.35625l-13.345-3.325625-9.116246,21.016259Z" transform="translate(.000004 0.000009)" fill="none" stroke="#000" stroke-width="3"/><path d="M222.605,186.25125l9.1375-36.65625l18.421485,4.886352c9.794419,2.955063,23.170904,10.599115,19.934764,24.151773-3.647036,14.35118-16.773786,11.984195-26.031251,12.379249L222.605,186.25125Z" transform="translate(.000004 0)" fill="none" stroke="#000" stroke-width="3"/><path d="M218.185,204.76l-10.295625,40.428125l23.853125,5.280629c11.924434,1.30305,29.80562-.731867,32.671875-11.796076c2.98317-12.667884-7.116878-21.230316-14.869492-24.393871L218.185,204.76Z" transform="translate(0 0.000001)" fill="none" stroke="#000" stroke-width="3"/></g><g transform="translate(.000001 0.000001)"><path id="e7szaPUJC5k9" d="" fill="none" stroke="#00bdf7" stroke-width="27" stroke-dasharray="0"/><path id="e7szaPUJC5k10" d="M146.668125,253.050625L183.65375,262.39l-7.596876,30.515l18.349374,4.568749l7.522499-30.175l14.64125,3.793125-7.50125,30.0475l18.36,4.56875l7.596875-30.451251l15.138359,2.110591c21.372705,4.57941,46.673127-8.240026,49.642266-26.898718c8.575149-15.994332.401537-38.362058-16.8725-44.54c9.270448-2.058293,22.709682-10.397779,23.449375-26.96625c2.787834-14.580225-8.638924-33.044959-23.449376-36.566138l-13.36625-5.668237l7.5225-30.175-18.36-4.568751-7.33125,29.378125-14.715625-3.46375l7.384375-29.569375-18.36-4.579375-7.724375,30.164374-36.836875-9.180001-4.8875,19.613749l13.3025,3.314999c5.47847.588929,9.443018,6.777042,8.595625,11.931875l-20.601875,81.40875c-1.048156,3.493354-5.083046,6.027323-8.425625,4.35625l-13.345-3.325625-9.116246,21.016259Z" transform="translate(.000004 0.000009)" fill="none" stroke="#00bdf7" stroke-width="3" stroke-dashoffset="842.79" stroke-dasharray="842.79"/><path id="e7szaPUJC5k11" d="M222.605,186.25125l9.1375-36.65625l18.421485,4.886352c9.794419,2.955063,23.170904,10.599115,19.934764,24.151773-3.647036,14.35118-16.773786,11.984195-26.031251,12.379249L222.605,186.25125Z" transform="translate(.000004 0)" fill="none" stroke="#00bdf7" stroke-width="3" stroke-dashoffset="145.49" stroke-dasharray="145.49"/><path id="e7szaPUJC5k12" d="M218.185,204.76l-10.295625,40.428125l23.853125,5.280629c11.924434,1.30305,29.80562-.731867,32.671875-11.796076c2.98317-12.667884-7.116878-21.230316-14.869492-24.393871L218.185,204.76Z" transform="translate(0 0.000001)" fill="none" stroke="#00bdf7" stroke-width="3" stroke-dashoffset="167.51" stroke-dasharray="167.51"/><path id="e7szaPUJC5k13" d="M60,199.729068C60,416.895394,388.850633,433.026642,400.731416,200C400,-18.700023,69.215276,-31.228963,60,199.729068Z" fill="none" stroke="#00bdf7" stroke-width="3" stroke-dashoffset="1071.15" stroke-dasharray="1071.15"/></g></svg>