<svg id="eyAwDzQRvdo1" xmlns="http://www.w3.org/2000/svg" xmlns:xlink="http://www.w3.org/1999/xlink" viewBox="0 0 1000 1000" shape-rendering="geometricPrecision" text-rendering="geometricPrecision"><style><![CDATA[#eyAwDzQRvdo5 {animation-name: eyAwDzQRvdo5_s_do, eyAwDzQRvdo5_s_da;animation-duration: 9090.90909090909ms;animation-fill-mode: forwards;animation-timing-function: linear;animation-direction: alternate;animation-iteration-count: infinite;}@keyframes eyAwDzQRvdo5_s_do { 0% {stroke-dashoffset: 1000} 100% {stroke-dashoffset: 800}}@keyframes eyAwDzQRvdo5_s_da { 0% {stroke-dasharray: 800} 100% {stroke-dasharray: 750}} #eyAwDzQRvdo7 {animation-name: eyAwDzQRvdo7_s_do, eyAwDzQRvdo7_s_da;animation-duration: 9090.90909090909ms;animation-fill-mode: forwards;animation-timing-function: linear;animation-direction: alternate;animation-iteration-count: infinite;}@keyframes eyAwDzQRvdo7_s_do { 0% {stroke-dashoffset: 1000} 100% {stroke-dashoffset: 900}}@keyframes eyAwDzQRvdo7_s_da { 0% {stroke-dasharray: 800} 100% {stroke-dasharray: 700}} #eyAwDzQRvdo8 {animation: eyAwDzQRvdo8_s_do 9090.90909090909ms linear infinite alternate forwards}@keyframes eyAwDzQRvdo8_s_do { 0% {stroke-dashoffset: 69.16} 100% {stroke-dashoffset: 0}} #eyAwDzQRvdo9 {animation: eyAwDzQRvdo9_s_do 9090.90909090909ms linear infinite alternate forwards}@keyframes eyAwDzQRvdo9_s_do { 0% {stroke-dashoffset: 79.84} 100% {stroke-dashoffset: 0}} #eyAwDzQRvdo10 {animation: eyAwDzQRvdo10_s_do 9090.90909090909ms linear infinite alternate forwards}@keyframes eyAwDzQRvdo10_s_do { 0% {stroke-dashoffset: 75.02} 100% {stroke-dashoffset: 0}} #eyAwDzQRvdo11 {animation: eyAwDzQRvdo11_s_do 9090.90909090909ms linear infinite alternate forwards}@keyframes eyAwDzQRvdo11_s_do { 0% {stroke-dashoffset: 74.53} 100% {stroke-dashoffset: 0}} #eyAwDzQRvdo12 {animation: eyAwDzQRvdo12_s_do 9090.90909090909ms linear infinite alternate forwards}@keyframes eyAwDzQRvdo12_s_do { 0% {stroke-dashoffset: 86.46} 100% {stroke-dashoffset: 0}} #eyAwDzQRvdo13 {animation: eyAwDzQRvdo13_s_do 9090.90909090909ms linear infinite alternate forwards}@keyframes eyAwDzQRvdo13_s_do { 0% {stroke-dashoffset: 74.89} 100% {stroke-dashoffset: 0}} #eyAwDzQRvdo14 {animation: eyAwDzQRvdo14_s_do 9090.90909090909ms linear infinite alternate forwards}@keyframes eyAwDzQRvdo14_s_do { 0% {stroke-dashoffset: 9.49} 100% {stroke-dashoffset: 0}} #eyAwDzQRvdo15 {animation: eyAwDzQRvdo15_s_do 9090.90909090909ms linear infinite alternate forwards}@keyframes eyAwDzQRvdo15_s_do { 0% {stroke-dashoffset: 94.61} 100% {stroke-dashoffset: 0}} #eyAwDzQRvdo16 {animation: eyAwDzQRvdo16_s_do 9090.90909090909ms linear infinite alternate forwards}@keyframes eyAwDzQRvdo16_s_do { 0% {stroke-dashoffset: 70.12} 100% {stroke-dashoffset: 0}} #eyAwDzQRvdo17 {animation: eyAwDzQRvdo17_s_do 9090.90909090909ms linear infinite alternate forwards}@keyframes eyAwDzQRvdo17_s_do { 0% {stroke-dashoffset: 14.55} 100% {stroke-dashoffset: 0}} #eyAwDzQRvdo18 {animation: eyAwDzQRvdo18_s_do 9090.90909090909ms linear infinite alternate forwards}@keyframes eyAwDzQRvdo18_s_do { 0% {stroke-dashoffset: 63.28} 100% {stroke-dashoffset: 0}}]]></style><g id="eyAwDzQRvdo2"><g id="eyAwDzQRvdo3"><g id="eyAwDzQRvdo4"><path id="eyAwDzQRvdo5" d="M386.9,462.6L385.9,462L324.1,426.3C325.3,425.5,325.2,424.2,323.8,423.4C322.191282,422.531238,320.270695,422.457369,318.6,423.2L318.2,423.4L317.7,423.7C316.7,424.6,316.9,425.8,318.2,426.6C319.74996,427.399991,321.565505,427.508924,323.2,426.9L323.3,426.9L397.3,469.7L397.3,468.7ZM370.5,361.1C370.678689,361.021417,370.821417,360.878689,370.9,360.7C371.155973,360.471057,371.301592,360.143416,371.3,359.8C371.3,359.2,370.9,358.7,370.1,358.2C368.319139,357.399572,366.280861,357.399572,364.5,358.2C363.891627,358.518975,363.479971,359.117748,363.4,359.8C363.40795,360.123215,363.512431,360.436658,363.7,360.7C363.920057,360.981771,364.191511,361.219294,364.5,361.4C366.051096,362.217751,367.888544,362.291249,369.5,361.6L397.3,377.6L397.3,376.6ZM389.1,397.2L374.8,388.9C375.8,388,375.7,386.8,374.3,386.1C372.544439,385.189184,370.455561,385.189184,368.7,386.1C367.2,386.9,367.2,388.3,368.7,389.3C370.349153,390.032181,372.223916,390.068234,373.9,389.4L388.2,397.7L393.7,400.8L397.3,402.9L397.3,401.9ZM369.9,402.2C370.46333,401.905482,370.779847,401.287864,370.689949,400.658579C370.600052,400.029293,370.123262,399.525005,369.5,399.4C367.779656,398.48973,365.720344,398.48973,364,399.4C362.4,400.2,362.4,401.7,364,402.6C365.51535,403.417807,367.323042,403.49159,368.9,402.8L397.3,419.1L397.3,418.1ZM386.9,445.7L385.9,445.1L323.5,409.1L298.7,409.1C298.450941,408.606262,298.070258,408.190972,297.6,407.9C295.819139,407.099572,293.780861,407.099572,292,407.9C290.5,408.9,290.5,410.3,292,411.2C293.780861,412.000428,295.819139,412.000428,297.6,411.2C298.089798,410.933312,298.476829,410.511096,298.7,410L323.2,410L385.9,446.2L386.9,446.8L397.3,452.8L397.3,451.8ZM869.6,606.1C867.844439,605.189184,865.755561,605.189184,864,606.1C862.7,606.8,862.5,608.1,863.6,609L790.7,651.1L772.4,651.1L665,589.1L542.4,589.1L475.7,550.6L474.8,550.1L472.7,548.9L485.9,541.2L488,542.5L536.4,570.4L678.5,570.4L741.3,606.8L742.8,607.6L778,627.9C776.9,628.8,777.1,630.1,778.4,630.9C780.155561,631.810816,782.244439,631.810816,784,630.9C785.5,630,785.5,628.5,784,627.7C782.45004,626.900009,780.634495,626.791076,779,627.4L744.6,607.6L743.1,606.8L678.8,569.7L573.7,569.7L595.1,557.3L596.6,556.5L601.2,553.8L675.5,553.8C675.70934,554.288861,676.056903,554.705937,676.5,555C678.295848,555.889694,680.404152,555.889694,682.2,555C683.7,554.1,683.7,552.6,682.2,551.8C680.404152,550.910306,678.295848,550.910306,676.5,551.8C676.012457,552.041208,675.649337,552.476953,675.5,553L601,553L594.9,556.5L593.4,557.3L572,569.6L536.7,569.6L489.8,542.5L488.9,542L486.7,540.7L498.4,534L500.5,535.3L501.4,535.8L542.6,559.6L560.5,559.6L564.7,557.2L566.1,556.4L596,539.1L596.5,538.8L705.4,538.8L725,527.5L723.2,527.5L705.2,537.9L596.3,537.9L577.8,548.6L564.4,556.4L563,557.2L560.2,558.8L542.9,558.8L510.8,540.3L526.9,540.3L542.4,549.3L554.7,549.3L555.8,548.6L557.3,547.8L581.6,533.7C583.262607,534.290727,585.08876,534.219113,586.7,533.5C588.3,532.5,588.3,531.1,586.7,530.2C584.919139,529.399572,582.880861,529.399572,581.1,530.2C579.7,531,579.6,532.3,580.7,533.2L575.5,536.2L572,538.2L555.6,547.8L554.4,548.4L542.7,548.4L527.2,539.4L509.3,539.4L502.2,535.3L501.3,534.8L499.2,533.5L509.6,527.5L508.1,527.5L419.9,578.4L319.6,520.6L318.7,520.1L316.7,518.9L321.2,516.3L322,515.8L364.9,491L365.8,490.5L381.9,481.3L382.8,480.7L397.3,472.3L397.3,471.3L384.5,478.7L277.9,417.2L277.9,365.7L328.2,336.6L374.5,336.6L397.3,323.5L397.3,322.4L374.3,335.8L329.6,335.8L390.8,300.5L391,300.3L391,254.4C391.799261,254.357006,392.581589,254.15292,393.3,253.8C394.9,252.9,394.9,251.5,393.3,250.6C391.579656,249.68973,389.520344,249.68973,387.8,250.6C386.3,251.5,386.3,252.9,387.8,253.8C388.553622,254.15346,389.368705,254.357231,390.2,254.4L390.2,299.8L288.5,358.5L226,322.4L226,281.8L181.5,256.2C182.7,255.3,182.5,254.1,181.2,253.3C179.467354,252.299656,177.332646,252.299656,175.6,253.3C174.1,254.2,174.1,255.6,175.6,256.4C177.121277,257.298796,178.982169,257.410449,180.6,256.7L225,282.3L225,322.9L287.6,359L277.2,365L276.9,365L276.9,405.6L258.9,395.2L258.9,369.9L241.7,360L240.7,359.4L222.3,348.8C223.4,347.9,223.3,346.7,221.9,345.8C220.119139,344.999572,218.080861,344.999572,216.3,345.8C214.7,346.7,214.7,348.2,216.3,349.1C217.915358,349.826858,219.75739,349.862976,221.4,349.2L240.7,360.4L241.7,361L258,370.4L258,395.8L276.9,406.7L276.9,417.7L383.5,479.2L381.8,480.2L380.9,480.7L367.9,488.3L161.2,368.9L161.2,325.7L45.7,259C46.9,258.2,46.7,256.9,45.4,256.1C43.584178,255.300155,41.515822,255.300155,39.7,256.1C38.2,257,38.2,258.4,39.7,259.3C41.289064,260.108846,43.152475,260.181921,44.8,259.5L160.3,326.2L160.3,369.5L367,488.8L364.9,490L364.1,490.5L354.3,496.2L327.4,480.7L325.8,479.8L247.7,434.8L170.1,434.8L135.9,415L136.2,415L136.2,394L97.4,371.5C98.6,370.7,98.5,369.4,97,368.6C95.279656,367.68973,93.220344,367.68973,91.5,368.6C90,369.5,90,370.9,91.5,371.8C93.051096,372.617751,94.888544,372.691249,96.5,372L135.2,394.4L135.2,414.4L76.5,380.5L66.3,380.5L11.3,412.2C9.688544,411.508751,7.851096,411.582249,6.3,412.4C4.7,413.3,4.7,414.8,6.3,415.6C8.020344,416.51027,10.079656,416.51027,11.8,415.6C13.2,414.9,13.4,413.7,12.2,412.8L66.5,381.4L76.2,381.4L169.8,435.4L247.4,435.4L324.1,479.8L325.7,480.7L353.3,496.7L342.1,503.2L262.6,457.2L261,456.3L241.4,444.9L152.3,444.9L109.5,420.1C110,419.4,109.7,418.4,108.6,417.7C106.844439,416.789184,104.755561,416.789184,103,417.7C101.5,418.6,101.5,420.1,103,420.9C104.755561,421.810816,106.844439,421.810816,108.6,420.9L108.9,420.7L152,445.7L241,445.7L255.9,454.4L137.1,454.4L43,508.6C41.371524,508.008852,39.576056,508.08067,38,508.8C36.5,509.8,36.5,511.2,38,512C39.755561,512.910816,41.844439,512.910816,43.6,512C44.9,511.3,45.1,510,43.9,509.1L137.3,455.2L257.4,455.2L259.3,456.3L260.9,457.2L295.1,477L290.9,479.4L290.1,479.9L280.3,485.5L254.1,485.5L229.5,499.6C227.865505,498.991076,226.04996,499.100009,224.5,499.9C222.9,500.7,222.9,502.2,224.5,503.1C226.255561,504.010816,228.344439,504.010816,230.1,503.1C231.4,502.3,231.6,501.1,230.5,500.1L254.3,486.3L278.8,486.3L271.8,490.4L270.4,491.2L221.7,519.3L168.9,519.3L139.4,502.3C140.5,501.5,140.3,500.2,139,499.4C137.244439,498.489184,135.155561,498.489184,133.4,499.4C131.9,500.3,131.9,501.7,133.5,502.6C135.051096,503.417751,136.888544,503.491249,138.5,502.8L168.5,520.1L221.9,520.1L272.2,491.1L273.6,490.3L290.9,480.3L291.8,479.8L295.9,477.4L327.5,495.5L310.1,495.5L298.6,502.2L297.8,502.7L296.1,503.6C294.410334,502.964456,292.535858,503.036551,290.9,503.8C289.4,504.7,289.4,506.2,290.9,507C292.655561,507.910816,294.744439,507.910816,296.5,507C297.8,506.2,298,505,296.9,504.1L298.6,503.2L299.5,502.7L310.3,496.4L329.1,496.4L341.4,503.6L321.2,515.2L320.3,515.7L315.7,518.4L315,518.8L317.9,520.5L318.7,520.9L323.2,523.6L321.2,524.7L320.3,525.3L298.6,537.8L297.7,538.3L277.8,549.8L262.5,549.8L244.5,539.3C245.5,538.4,245.5,537.2,244,536.4C242.279656,535.48973,240.220344,535.48973,238.5,536.4C237,537.3,237,538.7,238.5,539.6C240.089064,540.408846,241.952475,540.481921,243.6,539.8L262.2,550.6L278,550.6L298.6,538.7L299.5,538.2L311,531.5L311,548.9L290.8,560.6L290,561L280,567C278.382169,566.289551,276.521277,566.401204,275,567.3C273.4,568.1,273.4,569.6,275,570.4C276.697164,571.399286,278.802836,571.399286,280.5,570.4C281.109317,570.225683,281.558316,569.70815,281.644911,569.080333C281.731507,568.452515,281.439376,567.832757,280.9,567.5L290.9,561.8L291.7,561.3L311.7,549.8L311.9,549.8L311.9,531.2L321.1,525.8L322,525.3L324,524.2L366.9,548.9L364.9,550.1L364.1,550.6L347.1,560.4L321.3,560.4L280.5,583.9L249.6,583.9L206.5,559.1C207.6,558.2,207.5,557,206.1,556.1C204.354,555.299722,202.346,555.299722,200.6,556.1C199,557.1,199,558.5,200.6,559.4C202.178531,560.108881,203.969892,560.180535,205.6,559.6L249.2,584.8L280.7,584.8L321.5,561.2L345.6,561.2L226,630.3L141.6,630.3L136.1,633.4L135.2,634L88.5,661L88.2,661L88.2,708.2C87.085776,708.082501,85.963401,708.328021,85,708.9C83.5,709.8,83.5,711.2,85,712C86.732646,713.000344,88.867354,713.000344,90.6,712C92.1,711.2,92.1,709.8,90.6,708.9C90.139892,708.611931,89.63185,708.408714,89.1,708.3L89.1,661.6L135.2,635L136.1,634.4L141.8,631.1L226.3,631.1L365,551.1L365.8,550.6L367.8,549.4L383.9,558.7L381.9,559.9L381.1,560.4L241.1,641.2L240.9,641.2L240.9,690.5L192,718.9C190.352475,718.218079,188.489064,718.291154,186.9,719.1C185.4,720,185.4,721.4,186.9,722.3C188.620344,723.21027,190.679656,723.21027,192.4,722.3C193.8,721.5,194,720.3,192.8,719.4L241.5,691.3L241.7,691.1L241.7,641.8L381.9,560.9L382.8,560.4L384.8,559.2L401.6,568.9L399.6,570.1L317.9,617.3L317.7,617.3L317.7,659.6L461.7,742.8C460.7,743.6,460.8,744.9,462.1,745.7C463.855561,746.610816,465.944439,746.610816,467.7,745.7C469.2,744.8,469.2,743.3,467.7,742.5C466.161397,741.659612,464.328049,741.549611,462.7,742.2L356.9,681.3L388.7,681.3L445.7,714.3C444.6,715.2,444.7,716.4,446.1,717.2C447.855561,718.110816,449.944439,718.110816,451.7,717.2C453.2,716.3,453.2,714.9,451.7,714C450.110936,713.191154,448.247525,713.118079,446.6,713.8L389,680.5L355.3,680.5L318.7,659.3L318.7,618L318.8,618L324.3,614.8L386.1,579L386.1,600L344.5,623.9L344.3,624.1L344.3,645.3C343.508744,645.389834,342.734307,645.591861,342,645.9C340.4,646.9,340.4,648.3,342,649.2C343.746,650.000278,345.754,650.000278,347.5,649.2C349.1,648.3,349.1,646.9,347.5,645.9C346.746378,645.54654,345.931295,645.342769,345.1,645.3L345.1,624.6L386.6,600.7L386.9,600.5L386.9,578.5L399.7,571.1L400.5,570.6L402.5,569.5L419.6,579.5L419.9,579.5L430.4,573.4L430.4,619.3L393.8,640.4C393.7,640.4,393.6,640.4,393.6,640.3C391.984508,639.727334,390.201226,639.872908,388.7,640.7C387.4,641.4,387.3,642.5,388.2,643.4L388.7,643.8L389,644C390.695471,644.792301,392.669062,644.717826,394.3,643.8C395.7,643,395.8,641.7,394.7,640.9L431.1,619.9L431.3,619.9L431.3,601.2L445.8,609.5L446.6,610L458.6,616.9L458.6,634.6L398.9,669C397.279676,668.35875,395.463929,668.43138,393.9,669.2C392.3,670.1,392.3,671.5,393.9,672.4C395.620344,673.31027,397.679656,673.31027,399.4,672.4C400.8,671.6,401,670.4,399.9,669.4L459.3,635.1L459.5,635.1L459.5,616.3L446.6,608.8L445.8,608.4L431.3,600L431.3,572.8L446.1,564.2L448.3,565.4L449.2,565.9L458.9,571.5L458.9,588.1L478,599.1C476.9,600.1,477,601.3,478.5,602.2C480.172782,602.982412,482.098894,603.018754,483.8,602.3L484.1,602.3L484.7,601.8C485.006881,601.546623,485.199648,601.181012,485.23534,600.784651C485.271031,600.388291,485.146679,599.994124,484.89,599.69C484.831779,599.621753,484.768247,599.558221,484.7,599.5L484.1,599L483.8,599C482.278359,598.323391,480.548501,598.287352,479,598.9L459.8,587.8L459.8,572L501.6,596.2L501.6,632.5L484.7,642.3L483.8,642.9L438.6,668.9L438.4,668.9L438.4,682.7L460.6,695.4L461.5,696L474,703.2C472.9,704.1,473,705.3,474.4,706.2C476.180861,707.000428,478.219139,707.000428,480,706.2C481.5,705.3,481.5,703.8,480,702.9C478.38876,702.180887,476.562607,702.109273,474.9,702.7L461.5,695L460.6,694.5L439.3,682.2L439.3,669.5L483.8,643.9L484.7,643.4L502.3,633.2L502.5,633L502.5,595.7L450.1,565.4L449.2,564.9L447.1,563.7L458.3,557.2L460.4,558.4L461.3,558.9L530.2,598.7L530.2,666.9L551.1,679L551.1,741.8L637.2,791.5C636.5,792.3,636.9,793.3,638.1,793.9C639.820344,794.81027,641.879656,794.81027,643.6,793.9C645.2,793.1,645.2,791.6,643.6,790.7C641.879656,789.78973,639.820344,789.78973,638.1,790.7L637.9,790.9L552,741.3L552,679.6L735.1,785.4C734,786.3,734.1,787.5,735.6,788.3C737.355561,789.210816,739.444439,789.210816,741.2,788.3C742.7,787.5,742.7,786,741.2,785.1C739.58876,784.380887,737.762607,784.309273,736.1,784.9L531,666.5L531,598.3L462.1,558.5L461.1,558L459.1,556.8L471.8,549.4L473.9,550.6L474.8,551.1L541.8,589.8L541.6,590.2L608.1,628.6L608.1,637.1L619.4,643.6L620.3,644.1L621.6,644.8L621.6,668.9L720.9,726.1C719.8,726.9,720,728.3,721.3,729C723.032646,730.000344,725.167354,730.000344,726.9,729C728.4,728.2,728.4,726.7,726.9,725.9C725.378723,725.001204,723.517831,724.889551,721.9,725.6L622.5,668.3L622.5,645.3L639.6,655.1C638.6,656.1,638.6,657.3,640.1,658.2C641.880861,659.000428,643.919139,659.000428,645.7,658.2C647.2,657.2,647.2,655.8,645.7,654.9C644.110936,654.091154,642.247525,654.018079,640.6,654.7L620.3,643L619.4,642.5L609,636.5L609,628L543.1,589.9L573.7,589.9L705.6,666.1L705.6,686L758,716.2C756.8,717.1,756.9,718.4,758.3,719.2C760.020344,720.11027,762.079656,720.11027,763.8,719.2C765.4,718.3,765.4,716.8,763.8,716C762.264233,715.1498,760.426407,715.039531,758.8,715.7L706.5,685.5L706.5,665.6L575.4,589.9L664.7,589.9L772,651.9L791,651.9L864.5,609.4C866.136229,610.142284,868.026925,610.06814,869.6,609.2C871.1,608.4,871.1,606.9,869.6,606.1ZM737,520.5L736.1,520L735.2,520.5L736.2,521.1Z" transform="matrix(-0.866025 0.5 -0.5 -0.866025 1078.280871 755.575573)" fill="rgb(37,131,134)" stroke="rgb(63,63,194)" stroke-width="1" stroke-dashoffset="1000" stroke-dasharray="800"/></g><g id="eyAwDzQRvdo6"><path id="eyAwDzQRvdo7" d="M393.9,368.7C392.3,369.6,392.3,371,393.9,371.8C394.932279,372.383054,396.121356,372.627864,397.3,372.5L397.3,368.1C396.133362,367.991345,394.958979,368.198589,393.9,368.7ZM394.6,400.3C395.36112,399.852524,395.619863,398.875545,395.18,398.11C394.980778,397.775915,394.668653,397.524086,394.3,397.4C392.691282,396.531238,390.770695,396.457369,389.1,397.2L388.7,397.4L388.2,397.7C387.2,398.5,387.4,399.7,388.7,400.6C390.278531,401.308881,392.069892,401.380535,393.7,400.8L393.7,400.8L397.3,402.9L397.3,401.8ZM397.3,335.3L317.8,381.2L317.6,381.2L317.6,423.5L317.7,423.5L323.2,426.7L397.3,469.4L397.3,468.4L386.9,462.4L386.9,440.4L345.2,416.3L345.2,395.8C346.005252,395.720251,346.786851,395.482373,347.5,395.1C349,394.3,349,392.9,347.5,391.9C345.744439,390.989184,343.655561,390.989184,341.9,391.9C340.4,392.9,340.4,394.3,341.9,395.1C342.649085,395.48162,343.463213,395.719074,344.3,395.8L344.3,417L385.9,441.1L385.9,462.1L318.6,423.2L318.5,423.2L318.5,381.8L355,360.7L388.7,360.7L397.3,355.8L397.3,354.7L388.5,359.8L356.6,359.8L397.3,336.3ZM397.3,469.6L397.3,469.6L398.8,470.4ZM574.4,534.4C572.861397,533.559612,571.028049,533.449611,569.4,534.1L557.9,527.5L556.1,527.5L568.5,534.6C567.3,535.5,567.5,536.8,568.9,537.6C569.855313,538.090545,570.930644,538.298674,572,538.2C572.831295,538.157231,573.646378,537.95346,574.4,537.6C574.95796,537.321781,575.361689,536.807943,575.5,536.2C575.591188,535.418368,575.137162,534.675418,574.4,534.4ZM778.5,541.9C776.98465,541.082193,775.176958,541.00841,773.6,541.7L749.1,527.5L747.3,527.5L772.7,542.2C771.5,543.1,771.6,544.3,773,545.1C774.720344,546.01027,776.779656,546.01027,778.5,545.1C780.1,544.2,780.1,542.8,778.5,541.9ZM735.2,520.5L736.2,521.1L737,520.5L736.1,520ZM797.9,618.7C796.284642,617.973142,794.44261,617.937024,792.8,618.6L772.5,606.8L724,606.8L661.1,570.4L659.6,569.6L658,568.7L715,568.7L742.5,584.5C741.3,585.3,741.5,586.6,742.8,587.4C744.532646,588.400344,746.667354,588.400344,748.4,587.4C749.9,586.5,749.9,585.1,748.4,584.3C746.878723,583.401204,745.017831,583.289551,743.4,584L715.3,567.8L656.5,567.8L636.8,556.4L560,556.4L547.7,549.3L546.5,548.6L579.3,548.6L595.7,539.1L664,539.1L683,550.2L721.7,550.2C721.949059,550.693738,722.329742,551.109028,722.8,551.4C724.555561,552.310816,726.644439,552.310816,728.4,551.4C729.9,550.5,729.9,549.1,728.4,548.2C726.644439,547.289184,724.555561,547.289184,722.8,548.2C722.288914,548.438581,721.893323,548.870136,721.7,549.4L683.4,549.4L665.2,538.8L664.3,538.3L597.3,538.3L597.8,538L615.7,527.7C617.213094,528.318004,618.914561,528.281802,620.4,527.6L614.1,527.6L578.9,547.9L545,547.9L512.8,529.2L515.6,527.6L513.9,527.6L501.3,534.9L500.5,535.4L488.9,542L488,542.5L474.8,550.1L473.9,550.6L461.1,558L460.4,558.4L449.2,564.9L448.3,565.4L431.3,575.2L430.4,575.7L419.8,581.8L400.5,570.6L399.6,570.1L399.6,570.1L399.4,569.9L399.2,569.9L382.8,560.4L381.9,559.9L365.8,550.6L364.9,550.1L322,525.3L321.2,524.8L316.6,522.2L318.7,521L319.6,520.6L397.3,475.7L397.3,474.6L384.8,481.9L382.8,480.7L381.8,480.2L241.7,399.3L241.7,349.9L192.7,321.7C193.9,320.9,193.7,319.6,192.4,318.8C190.644439,317.889184,188.555561,317.889184,186.8,318.8C185.2,319.7,185.2,321.1,186.8,322C188.351096,322.817751,190.188544,322.891249,191.8,322.2L240.7,350.4L240.7,399.8L380.9,480.7L381.9,481.3L383.8,482.4L367.8,491.7L365.8,490.5L364.9,490L347.2,479.8L226.3,410L141.8,410L136.2,406.8L135.2,406.2L89.1,379.5L89.1,332.7L90.6,332.2C92.1,331.3,92.1,329.8,90.6,328.9C88.854,328.099722,86.846,328.099722,85.1,328.9C83.5,329.8,83.5,331.3,85.1,332.2C86.06969,332.647494,87.133369,332.853367,88.2,332.8L88.2,380L135.2,407.2L136.2,407.7L141.5,410.8L226,410.8L345.4,479.8L321.5,479.8L280.8,456.4L249.3,456.4L205.6,481.6C203.988544,480.908751,202.151096,480.982249,200.6,481.8C199,482.8,199,484.2,200.6,485C202.320344,485.91027,204.379656,485.91027,206.1,485C207.4,484.3,207.6,483,206.5,482.1L249.5,457.3L280.5,457.3L321.2,480.7L347,480.7L364.1,490.5L364.9,491L366.9,492.2L324,517L322,515.8L321.2,515.3L311.9,509.9L311.9,491.4L291.8,479.9L290.9,479.4L280.9,473.6C282,472.7,281.9,471.4,280.5,470.6C278.754,469.799722,276.746,469.799722,275,470.6C273.4,471.5,273.4,472.9,275,473.9C276.579276,474.631389,278.392743,474.667658,280,474L290.1,479.9L290.9,480.4L311,491.9L311,509.4L299.5,502.8L298.6,502.3L278.1,490.4L262.3,490.4L243.6,501.1C241.930138,500.500908,240.088107,500.609262,238.5,501.4C237,502.3,237,503.7,238.5,504.6C240.255561,505.510816,242.344439,505.510816,244.1,504.6C245.4,503.8,245.6,502.6,244.4,501.6L262.6,491.2L277.7,491.2L297.8,502.8L298.6,503.3L320.3,515.8L321.2,516.3L323.2,517.5L318.7,520.1L317.9,520.6L315.6,521.9L314.9,522.2L320.3,525.4L321.1,525.8L341.2,537.5L328.9,544.6L310.3,544.6L299.5,538.4L298.6,537.9L296.9,536.9C297.9,536,297.7,534.8,296.5,534C294.779656,533.08973,292.720344,533.08973,291,534C289.4,534.9,289.4,536.3,291,537.2C292.585492,538.022441,294.454971,538.095754,296.1,537.4L297.7,538.4L298.6,538.9L309.9,545.4L327.3,545.4L295.9,563.6L291.7,561.2L290.8,560.7L273.6,550.7L272,549.8L221.9,521L168.6,521L138.5,538.4C136.843836,537.768526,135.001626,537.84077,133.4,538.6C131.9,539.5,131.9,540.9,133.4,541.8C135.155561,542.710816,137.244439,542.710816,139,541.8C140.3,541,140.5,539.7,139.4,538.8L168.8,521.8L221.7,521.8L270.3,550L271.9,550.9L278.7,554.8L254.3,554.8L230.4,541C230.762481,540.77879,231.021413,540.421774,231.119092,540.008513C231.216772,539.595252,231.145083,539.160089,230.92,538.8C230.710567,538.460818,230.382751,538.211393,230,538.1C228.302836,537.100714,226.197164,537.100714,224.5,538.1C222.9,538.9,222.9,540.3,224.5,541.2C226.051096,542.017751,227.888544,542.091249,229.5,541.4L254,555.5L280.3,555.5L290,561.1L290.9,561.7L295.1,564.1L260.8,583.8L259.2,584.7L257.5,585.7L137.3,585.7L44,531.9C45,531,44.9,529.9,43.6,529C41.819139,528.199572,39.780861,528.199572,38,529C36.4,529.9,36.4,531.4,38,532.3C39.612961,533.037443,41.459371,533.073647,43.1,532.4L137,586.7L255.9,586.7L241,595.4L152.1,595.4L108.8,620.3L108.6,620.3C106.879656,619.38973,104.820344,619.38973,103.1,620.3C101.5,621.2,101.5,622.6,103.1,623.5C104.820344,624.41027,106.879656,624.41027,108.6,623.5C109.7,622.8,110,621.8,109.4,621L152.3,596.3L241.2,596.3L261,584.8L262.6,583.9L342.2,538L353.5,544.5L325.9,560.4L324.5,561.2L247.4,605.7L169.9,605.7L76.2,659.8L66.5,659.8L12.2,628.4C13.3,627.5,13.2,626.3,11.7,625.5C9.954,624.699722,7.946,624.699722,6.2,625.5C4.7,626.4,4.7,627.9,6.2,628.8C7.779276,629.531389,9.592743,629.567658,11.2,628.9L66.1,660.7L76.4,660.7L135.2,626.8L135.2,646.8L96.5,669.2C94.852475,668.518079,92.989064,668.591154,91.4,669.4C89.9,670.3,89.9,671.7,91.4,672.5C93.132646,673.500344,95.267354,673.500344,97,672.5C98.4,671.8,98.5,670.6,97.4,669.7L135.9,647.4L136.1,647.4L136.1,626.4L135.9,626.4L170.1,606.7L247.6,606.7L326.1,561.3L327.5,560.5L354.3,545L364.1,550.7L365,551.2L366.9,552.3L160.5,671.5L160.2,671.5L160.2,714.8L44.8,781.6C43.143836,780.968526,41.301626,781.04077,39.7,781.8C38.2,782.7,38.2,784.1,39.7,784.9C41.432646,785.900344,43.567354,785.900344,45.3,784.9C45.909317,784.725683,46.358316,784.20815,46.444911,783.580333C46.531507,782.952515,46.239376,782.332757,45.7,782L160.9,715.6L161.1,715.4L161.1,672.1L367.9,552.8L381.1,560.4L381.9,560.9L383.6,561.8L277.1,623.3L276.9,623.3L276.9,634.4L258,645.3L258,670.6L241.7,680L240.9,680.5L221.2,691.8C219.623042,691.10841,217.81535,691.182193,216.3,692C214.7,692.9,214.7,694.4,216.3,695.2C218.020344,696.11027,220.079656,696.11027,221.8,695.2C223.2,694.5,223.4,693.2,222.2,692.4L240.9,681.6L241.7,681.1L258.6,671.3L258.9,671.1L258.9,645.8L276.9,635.5L276.9,676L287.5,682.1L225.3,718.1L225.1,718.1L225.1,758.6L180.6,784.3C178.928782,783.769234,177.124521,783.839989,175.5,784.5C174,785.4,174,786.9,175.5,787.8C177.280861,788.600428,179.319139,788.600428,181.1,787.8C182.5,786.9,182.7,785.7,181.6,784.8L225.7,759.3L225.9,759.1L225.9,718.7L288.4,682.7L390,741.3L390,786.7C389.212426,786.808956,388.440435,787.010345,387.7,787.3C386.2,788.2,386.2,789.6,387.7,790.5C389.455561,791.410816,391.544439,791.410816,393.3,790.5C394.8,789.6,394.8,788.2,393.3,787.3C392.565693,786.991861,391.791256,786.789834,391,786.7L391,740.8L329.6,705.4L374.1,705.4L410.1,726.1C409,727,409.1,728.3,410.5,729.1C412.255561,730.010816,414.344439,730.010816,416.1,729.1C417.7,728.2,417.7,726.8,416.1,725.9C414.510936,725.091154,412.647525,725.018079,411,725.7L374.5,704.5L328.1,704.5L277.8,675.5L277.8,623.9L384.4,562.3L398.5,570.4L322.9,614C321.346015,613.472791,319.642543,613.617768,318.2,614.4C316.8,615.2,316.7,616.5,317.8,617.4C317.892235,617.528502,318.041858,617.603313,318.2,617.6L318.8,617.9C320.434495,618.508924,322.25004,618.399991,323.8,617.6C325,616.8,325.2,615.6,324.3,614.7L323.9,614.5L399.3,570.9L399.7,571.1L413.5,579.1L386.9,594.4L386.1,594.8L323.2,631.2L298.7,631.2C298.420866,630.727788,298.046203,630.319065,297.6,630C295.819139,629.199572,293.780861,629.199572,292,630C290.4,631,290.4,632.4,292,633.2C293.755561,634.110816,295.844439,634.110816,297.6,633.2C298.05804,632.969806,298.414372,632.577841,298.6,632.1L323.3,632.1L386.1,595.8L386.9,595.4L414.3,579.6L419.7,582.7L419.8,582.7L424.1,580.2L430.4,583.9L431.3,584.3L445.8,592.7L445.8,610.1L431.3,618.4L430.4,618.9L427.9,620.4L399.8,620.4L369,638.3C367.352475,637.618079,365.489064,637.691154,363.9,638.5C362.4,639.4,362.4,640.8,363.9,641.7C365.655561,642.610816,367.744439,642.610816,369.5,641.7C370.9,640.9,371,639.7,369.9,638.8L400.1,621.3L426.5,621.3L393.6,640.3L388.2,643.4L373.9,651.7C372.263771,650.957716,370.373075,651.03186,368.8,651.9C367.2,652.7,367.2,654.2,368.8,655.1C370.520344,656.01027,372.579656,656.01027,374.3,655.1C375.6,654.3,375.8,653,374.8,652.2L389,644L431.3,619.6L440.3,614.4L440.3,622.7L401.5,645.1L401.3,645.3L401.3,661.2L369.6,679.5C367.952475,678.818079,366.089064,678.891154,364.5,679.7C364.171545,679.851514,363.893773,680.094564,363.7,680.4C363.512431,680.663342,363.40795,680.976785,363.4,681.3C363.450105,681.993097,363.870807,682.605026,364.5,682.9C366.220344,683.81027,368.279656,683.81027,370,682.9C370.672535,682.639338,371.138074,682.018619,371.2,681.3C371.19205,680.976785,371.087569,680.663342,370.9,680.4L370.5,680L402,661.7L402.2,661.7L402.2,645.8L440.9,623.3L441.2,623.3L441.2,613.9L446.4,610.9L446.6,610.7L446.6,592.3L431.3,583.4L430.4,582.9L425,579.8L430.4,576.7L431.3,576.2L439.3,571.6L458.9,582.9L459.8,583.5L483.8,597.3L483.8,626.3L453.4,643.9C451.771951,643.249611,449.938603,643.359612,448.4,644.2C446.9,645,446.9,646.4,448.4,647.4C450.155561,648.310816,452.244439,648.310816,454,647.4C455.3,646.5,455.5,645.3,454.3,644.4L483.8,627.4L483.8,651.2L460.8,664.4L460.6,664.4L460.6,709C459.776366,709.020333,458.963232,709.189736,458.2,709.5C456.7,710.5,456.7,711.9,458.2,712.7C459.995848,713.589694,462.104152,713.589694,463.9,712.7C465.4,711.9,465.4,710.5,463.9,709.5C463.136768,709.189736,462.323634,709.020333,461.5,709L461.5,665L483.8,652.2L483.8,729C482.962371,728.995809,482.137112,729.202124,481.4,729.6C479.9,730.5,479.9,732,481.4,732.8C483.155561,733.710816,485.244439,733.710816,487,732.8C488.5,732,488.5,730.5,487,729.6C486.298785,729.202824,485.505875,728.995978,484.7,729L484.7,596.8L459.8,582.4L458.9,581.9L440.2,571.1L449.2,565.9L450.1,565.4L456.2,561.9L514.4,595.5L514.4,675.5L542.4,691.6L542.4,721.7L551.1,726.7L552,727.3L567,735.9C566.637519,736.12121,566.378587,736.478226,566.280908,736.891487C566.183228,737.304748,566.254917,737.739911,566.48,738.1C566.689433,738.439182,567.017249,738.688607,567.4,738.8C569.155561,739.710816,571.244439,739.710816,573,738.8C574.5,738,574.5,736.6,573,735.6C571.410936,734.791154,569.547525,734.718079,567.9,735.4L552,726.2L551.1,725.7L543.2,721.2L543.2,691.1L515.1,675L515.1,595L457,561.4L461.3,558.9L462.1,558.5L468.8,554.6L547.3,599.9L547.3,668.1L617,708.4C615.8,709.2,616,710.5,617.3,711.3C619.055561,712.210816,621.144439,712.210816,622.9,711.3C624.5,710.4,624.5,709,622.9,708.1C621.348904,707.282249,619.511456,707.208751,617.9,707.9L548.1,667.6L548.1,599.4L469.6,554.1L474.8,551.1L475.7,550.6L488.8,543.1L568.5,589.1L570,589.9L619.4,618.5L619.4,652.5L621.6,653.7L622.5,654.2L728.9,715.6C727.8,716.6,727.9,717.8,729.3,718.6C731.055561,719.510816,733.144439,719.510816,734.9,718.6C736.4,717.7,736.4,716.3,734.9,715.4C733.311893,714.609262,731.469862,714.500908,729.8,715.1L622.5,653.2L621.6,652.8L620.3,652L620.3,618L571.9,589.9L570.4,589.1L546.9,575.5L605,575.5L628.6,589.1L630,589.9L672.2,614.3C671,615.1,671.1,616.4,672.6,617.2C674.320344,618.11027,676.379656,618.11027,678.1,617.2C679.7,616.3,679.7,614.9,678.1,614C676.58465,613.182193,674.776958,613.10841,673.2,613.8L631.8,589.9L630.4,589.1L605.3,574.6L545.4,574.6L538.1,570.4L489.7,542.5L489.8,542.5L501.4,535.8L502.2,535.3L511.9,529.7L544.5,548.4L545.9,549.3L559.6,557.1L636.4,557.1L657.9,569.5L659.3,570.3L723.6,607.5L772.2,607.5L791.9,619C790.8,619.9,790.9,621.1,792.3,621.9C794.080861,622.700428,796.119139,622.700428,797.9,621.9C799.4,621.1,799.4,619.7,797.9,618.7ZM545,547.8L512.8,529.1L515.6,527.5L513.9,527.5L501.3,534.8L500.5,535.3L501.4,535.8L502.2,535.3L511.9,529.7L544.5,548.4L554.4,548.4L555.6,547.8Z" transform="matrix(0.866025 -0.5 0.5 0.866025 -167.697105 273.024875)" fill="rgb(6,208,226)" stroke="rgb(0,0,0)" stroke-width="1" stroke-dashoffset="1000" stroke-dasharray="800"/></g></g></g><path id="eyAwDzQRvdo8" d="M170,100L150.422253,100L150.422252,130L169.999999,130" transform="matrix(1 0 0 1 0.000001 0)" fill="none" stroke="rgb(63,87,135)" stroke-width="2" stroke-dashoffset="69.16" stroke-dasharray="69.16"/><path id="eyAwDzQRvdo9" d="M180.162968,100L180.162968,130L200,130L200,100" fill="none" stroke="rgb(63,87,135)" stroke-width="2" stroke-dashoffset="79.84" stroke-dasharray="79.84"/><path id="eyAwDzQRvdo10" d="M209.97834,100L240,100L225,100L225,130" fill="none" stroke="rgb(63,87,135)" stroke-width="2" stroke-dashoffset="75.02" stroke-dasharray="75.02"/><path id="eyAwDzQRvdo11" d="M250.474347,100L280,100L265,100L265,130" fill="none" stroke="rgb(63,87,135)" stroke-width="2" stroke-dashoffset="74.53" stroke-dasharray="74.53"/><path id="eyAwDzQRvdo12" d="M290,130L300,100L309.933509,130L306.470915,120L293.816682,120" transform="matrix(1 0 0 1 0.000003 0)" fill="none" stroke="rgb(63,87,135)" stroke-width="2" stroke-dashoffset="86.46" stroke-dasharray="86.46"/><path id="eyAwDzQRvdo13" d="M320.091914,100L350.062321,100L335.143347,100L335.143347,130" transform="matrix(1 0 0 1 0.000001 0)" fill="none" stroke="rgb(63,87,135)" stroke-width="2" stroke-dashoffset="74.89" stroke-dasharray="74.89"/><path id="eyAwDzQRvdo14" d="M360.424788,120L369.916992,120" fill="none" stroke="rgb(63,87,135)" stroke-width="2" stroke-dashoffset="9.49" stroke-dasharray="9.49"/><path id="eyAwDzQRvdo15" d="M380,100L380,130L395.363779,130L399.956556,125L399.956556,104L395.363778,100L380,100Z" transform="matrix(1 0 0 1 0.000001 0)" fill="none" stroke="rgb(63,87,135)" stroke-width="2" stroke-dashoffset="94.61" stroke-dasharray="94.61"/><path id="eyAwDzQRvdo16" d="M430,100L410.10533,100L410.10533,130L430.332044,130" fill="none" stroke="rgb(63,87,135)" stroke-width="2" stroke-dashoffset="70.12" stroke-dasharray="70.12"/><path id="eyAwDzQRvdo17" d="M409.846938,115L424.394988,115" fill="none" stroke="rgb(63,87,135)" stroke-width="2" stroke-dashoffset="14.55" stroke-dasharray="14.55"/><path id="eyAwDzQRvdo18" d="M440,100L450,130L460.094121,100" transform="matrix(1 0 0 1 0.000001 0)" fill="none" stroke="rgb(63,87,135)" stroke-width="2" stroke-dashoffset="63.28" stroke-dasharray="63.28"/></svg>